<?xml version="1.0" encoding="UTF-8"?><svg id="Layer_1" xmlns="http://www.w3.org/2000/svg" viewBox="0 0 1500 1500"><defs><style>.cls-1{fill:#ea953e;}.cls-2{fill:#fff;}.cls-3{fill:#fdfefe;}.cls-4,.cls-5{fill:#bc3431;}.cls-5{stroke:#bd3432;stroke-linecap:round;stroke-linejoin:round;stroke-width:25.51px;}</style></defs><path class="cls-5" d="m743.63,218.2c2.66,5.2,42.48,86.24-2.51,160.16-35.73,58.69-99.15,70.54-113.57,73.24-72.34,13.52-127.33-22.64-138.36-30.23-1.01,13.72-6.83,71.99-56.05,118.98-51.11,48.79-112.42,50.47-125.56,50.53,34.01,60.69,32.22,130.89-4.38,177.63-26.11,33.34-62.21,44.88-78.6,48.94,40.16,265.82,264.7,461.54,519.04,464.33,284.93,3.13,531.92-236.7,531.79-531.79-.13-290.32-239.42-530.7-531.79-531.79Z"/><circle class="cls-4" cx="631.12" cy="357.22" r="29.18"/><circle class="cls-4" cx="614.34" cy="271.3" r="14.04"/><circle class="cls-4" cx="542.33" cy="298.81" r="22.06"/><path class="cls-1" d="m638.44,756.6c.15.3,2.42,4.9-.14,9.11-2.03,3.34-5.64,4.01-6.46,4.16-4.11.77-7.24-1.29-7.87-1.72-.06.78-.39,4.09-3.19,6.76-2.91,2.77-6.39,2.87-7.14,2.87,1.93,3.45,1.83,7.44-.25,10.1-1.48,1.9-3.54,2.55-4.47,2.78,2.28,15.11,15.05,26.24,29.51,26.4,16.2.18,30.24-13.46,30.23-30.23,0-16.51-13.61-30.17-30.23-30.23Z"/><path class="cls-1" d="m731.17,728.2c-12.25,0-23.34-2.97-33.28-8.92-9.94-5.94-17.8-14.15-23.56-24.62-5.77-10.47-8.65-22.45-8.65-35.94s2.88-25.29,8.65-35.41c5.77-10.12,13.62-18.06,23.56-23.83,9.94-5.77,21.03-8.65,33.28-8.65,8.69,0,17.12,2.4,25.29,7.19,8.16,4.79,14.46,12.69,18.9,23.69v-29.02h55.37v133.37h-55.9v-24.76c-4.26,8.7-9.94,15.35-17.04,19.97-7.1,4.62-15.97,6.92-26.62,6.92Zm17.3-42.06c7.27,0,13.49-2.62,18.63-7.85,5.15-5.23,7.72-11.67,7.72-19.3s-2.57-13.88-7.72-18.77c-5.15-4.88-11.36-7.32-18.63-7.32-7.63,0-14.02,2.58-19.17,7.72-5.15,5.15-7.72,11.45-7.72,18.9s2.57,13.76,7.72,18.9c5.15,5.15,11.54,7.72,19.17,7.72Z"/><path class="cls-1" d="m900.22,728.2c-7.99,0-16.06-.8-24.23-2.4-8.16-1.6-15.53-3.82-22.1-6.65l7.72-33.54c4.08,2.13,9.67,3.95,16.77,5.46,7.1,1.51,13.4,2.26,18.9,2.26,8.87,0,13.31-2.4,13.31-7.19,0-2.3-1.38-3.99-4.13-5.06-2.75-1.06-6.3-2-10.65-2.8-4.35-.8-9.01-1.86-13.98-3.19-4.97-1.33-9.63-3.37-13.98-6.12-4.35-2.75-7.9-6.7-10.65-11.85-2.75-5.15-4.13-11.89-4.13-20.23,0-14.02,5.54-25.2,16.64-33.54,11.09-8.34,26.31-12.51,45.66-12.51,7.45,0,14.42.53,20.9,1.6,6.48,1.06,12.65,3.29,18.5,6.65l-5.59,32.48c-9.41-3.9-19.26-5.85-29.55-5.85-6.57,0-11.31.53-14.24,1.6-2.93,1.07-4.39,2.84-4.39,5.32,0,1.96,1.42,3.46,4.26,4.53,2.84,1.07,6.52,2.09,11.05,3.06,4.53.98,9.27,2.31,14.24,3.99,4.97,1.69,9.72,4.04,14.24,7.05,4.53,3.02,8.21,7.05,11.05,12.11,2.84,5.06,4.26,11.58,4.26,19.57,0,14.2-5.24,25.29-15.71,33.28-10.47,7.99-25.2,11.98-44.19,11.98Z"/><path class="cls-1" d="m1035.72,728.2c-12.6,0-22.85-2.13-30.75-6.39-7.9-4.26-13.62-10.02-17.17-17.3-3.55-7.27-5.32-15.44-5.32-24.49v-54.31h-17.04v-33.01h21.03l24.76-42.06h27.42v42.06h30.88v33.01h-30.88v46.59c0,4.08,1.33,7.23,3.99,9.45,2.66,2.22,6.12,3.33,10.38,3.33s8.52-1.06,12.78-3.19l4,37c-4.26,3.02-9.67,5.32-16.24,6.92s-12.51,2.4-17.84,2.4Z"/><path class="cls-1" d="m526.79,966.84c-10.8,0-19.8-2.34-26.99-7.01-7.2-4.68-12.95-11.43-17.27-20.24v25.1h-56.68v-177.85l57.22-8.37v78.81c4.32-10.26,10.48-17.77,18.49-22.54,8-4.76,16.42-7.15,25.23-7.15,12.59,0,23.88,2.93,33.87,8.77,9.99,5.85,17.9,13.9,23.75,24.15,5.84,10.25,8.77,22.22,8.77,35.89s-2.93,25.82-8.77,36.44c-5.85,10.62-13.76,18.94-23.75,24.96-9.99,6.03-21.28,9.04-33.87,9.04Zm-17.54-42.64c7.73,0,14.21-2.61,19.43-7.83,5.22-5.21,7.83-11.6,7.83-19.16s-2.61-13.94-7.83-19.16c-5.22-5.22-11.7-7.83-19.43-7.83s-13.68,2.48-18.89,7.42c-5.22,4.95-7.83,11.29-7.83,19.03s2.61,14.26,7.83,19.57c5.22,5.31,11.51,7.96,18.89,7.96Z"/><path class="cls-1" d="m663.35,966.84c-12.06,0-21.82-2.16-29.28-6.48-7.47-4.32-12.91-10.16-16.33-17.54-3.42-7.38-5.13-15.65-5.13-24.83v-88.52h56.95v80.69c0,4.14,1.21,7.33,3.64,9.58,2.43,2.25,5.35,3.37,8.77,3.37,3.6,0,7.29-1.08,11.06-3.24l2.97,37.51c-3.96,3.06-9.09,5.4-15.38,7.02-6.3,1.62-12.06,2.43-17.27,2.43Z"/><path class="cls-1" d="m764.56,966.84c-12.78,0-23.17-2.16-31.17-6.48-8.01-4.32-13.81-10.16-17.41-17.54-3.6-7.38-5.4-15.65-5.4-24.83v-55.06h-17.27v-33.47h21.32l25.1-42.64h27.8v42.64h31.31v33.47h-31.31v47.23c0,4.14,1.35,7.33,4.05,9.58,2.7,2.25,6.21,3.37,10.53,3.37s8.64-1.08,12.95-3.24l4.05,37.51c-4.32,3.06-9.81,5.4-16.46,7.02-6.66,1.62-12.68,2.43-18.08,2.43Z"/><path class="cls-1" d="m899.77,929.06c5.21,0,10.75-.54,16.6-1.62,5.84-1.08,11.83-3.06,17.94-5.94l6.48,34.81c-6.66,3.42-13.9,6.03-21.73,7.83-7.83,1.8-16.78,2.7-26.85,2.7-18.18,0-33.42-2.97-45.75-8.9-12.33-5.94-21.64-14.13-27.93-24.56-6.3-10.43-9.45-22.49-9.45-36.16s3.38-26.27,10.12-36.7c6.75-10.43,15.79-18.53,27.12-24.29,11.33-5.76,23.84-8.64,37.51-8.64,20.33,0,35.9,6.34,46.69,19.03,10.79,12.68,16.19,30.72,16.19,54.11l-80.43,10.26c5.94,12.06,17.09,18.08,33.47,18.08Zm-37.78-42.91l42.37-8.91c-.72-5.76-2.7-10.03-5.94-12.82-3.24-2.79-7.29-4.18-12.14-4.18-7.2,0-12.91,2.48-17.14,7.42-4.23,4.95-6.61,11.11-7.15,18.49Z"/><path class="cls-1" d="m1009.07,966.84c-8.1,0-16.29-.81-24.56-2.43-8.28-1.62-15.75-3.87-22.4-6.75l7.83-34c4.14,2.16,9.8,4.01,17,5.53,7.2,1.53,13.59,2.29,19.16,2.29,8.99,0,13.49-2.43,13.49-7.29,0-2.34-1.39-4.05-4.18-5.13s-6.39-2.02-10.79-2.83c-4.41-.81-9.13-1.89-14.17-3.24-5.04-1.35-9.76-3.41-14.17-6.21-4.41-2.79-8.01-6.79-10.8-12.01-2.79-5.22-4.18-12.05-4.18-20.51,0-14.21,5.62-25.55,16.87-34.01,11.24-8.45,26.67-12.68,46.28-12.68,7.56,0,14.62.54,21.19,1.62,6.56,1.08,12.82,3.33,18.76,6.75l-5.67,32.92c-9.54-3.95-19.53-5.93-29.96-5.93-6.66,0-11.47.54-14.44,1.62-2.97,1.08-4.45,2.88-4.45,5.4,0,1.98,1.44,3.51,4.32,4.59,2.87,1.08,6.61,2.12,11.2,3.11,4.59.99,9.4,2.34,14.44,4.05,5.03,1.71,9.85,4.09,14.44,7.15,4.59,3.06,8.32,7.15,11.2,12.28,2.88,5.13,4.32,11.74,4.32,19.84,0,14.4-5.31,25.64-15.92,33.74-10.62,8.1-25.55,12.14-44.8,12.14Z"/><path class="cls-3" d="m429.74,1056.94v-57.15h39.38v12.63h-21.52v11.55h19.94v11.13h-19.94v21.85h-17.86Z"/><path class="cls-3" d="m503.26,1058.27c-6.04,0-11.35-1.27-15.95-3.82-4.6-2.55-8.18-6.06-10.76-10.55s-3.86-9.64-3.86-15.45,1.29-11.05,3.86-15.53c2.58-4.49,6.16-8,10.76-10.55,4.6-2.55,9.91-3.82,15.95-3.82s11.35,1.26,15.95,3.78c4.6,2.52,8.18,6.02,10.76,10.51,2.58,4.49,3.86,9.69,3.86,15.62s-1.29,10.96-3.86,15.45c-2.58,4.49-6.16,8-10.76,10.55-4.6,2.55-9.91,3.82-15.95,3.82Zm0-15.12c3.49,0,6.35-1.36,8.6-4.07,2.24-2.71,3.36-6.28,3.36-10.72,0-2.99-.51-5.62-1.54-7.89-1.03-2.27-2.44-4.06-4.24-5.36-1.8-1.3-3.89-1.95-6.27-1.95-3.49,0-6.34,1.4-8.56,4.2-2.22,2.8-3.32,6.47-3.32,11.01s1.11,8,3.32,10.72c2.21,2.71,5.09,4.07,8.64,4.07Z"/><path class="cls-3" d="m568.72,1058.27c-6.04,0-11.35-1.27-15.95-3.82-4.6-2.55-8.18-6.06-10.76-10.55s-3.86-9.64-3.86-15.45,1.29-11.05,3.86-15.53c2.58-4.49,6.16-8,10.76-10.55,4.6-2.55,9.91-3.82,15.95-3.82s11.35,1.26,15.95,3.78c4.6,2.52,8.18,6.02,10.76,10.51,2.58,4.49,3.86,9.69,3.86,15.62s-1.29,10.96-3.86,15.45c-2.58,4.49-6.16,8-10.76,10.55-4.6,2.55-9.91,3.82-15.95,3.82Zm0-15.12c3.49,0,6.35-1.36,8.6-4.07,2.24-2.71,3.36-6.28,3.36-10.72,0-2.99-.51-5.62-1.54-7.89-1.03-2.27-2.44-4.06-4.24-5.36-1.8-1.3-3.89-1.95-6.27-1.95-3.49,0-6.34,1.4-8.56,4.2-2.22,2.8-3.32,6.47-3.32,11.01s1.11,8,3.32,10.72c2.21,2.71,5.09,4.07,8.64,4.07Z"/><path class="cls-3" d="m606.02,1056.94v-57.15h19.85c8.31,0,15.08,1.19,20.31,3.57,5.23,2.38,9.08,5.68,11.55,9.89,2.46,4.21,3.7,9.11,3.7,14.7,0,9.14-3,16.25-9.01,21.35-6.01,5.1-15.13,7.64-27.37,7.64h-19.02Zm18.36-14.54h5.32c4.43,0,7.73-1.34,9.88-4.03,2.16-2.69,3.24-6.22,3.24-10.59,0-4.04-1.04-7.3-3.12-9.76-2.08-2.46-5.41-3.7-10.01-3.7h-5.32v28.08Z"/><path class="cls-3" d="m683.69,1056.94v-57.15h19.85c8.31,0,15.08,1.19,20.31,3.57,5.23,2.38,9.08,5.68,11.55,9.89,2.46,4.21,3.7,9.11,3.7,14.7,0,9.14-3,16.25-9.01,21.35-6.01,5.1-15.13,7.64-27.37,7.64h-19.02Zm18.36-14.54h5.32c4.43,0,7.73-1.34,9.88-4.03,2.16-2.69,3.24-6.22,3.24-10.59,0-4.04-1.04-7.3-3.12-9.76-2.08-2.46-5.41-3.7-10.01-3.7h-5.32v28.08Z"/><path class="cls-3" d="m745.82,1056.94v-57.15h40.12v12.63h-19.94v10.13h18.19v10.47h-18.19v10.88h19.94v13.04h-40.12Z"/><path class="cls-3" d="m793.42,1056.94v-57.15h17.94v44.03h20.27l-.83,13.13h-37.38Z"/><path class="cls-3" d="m837.95,1056.94v-57.15h18.77v57.15h-18.77Z"/><path class="cls-3" d="m878.15,1056.94l-16.95-57.15h19.6l8.81,35.64,8.81-35.64h18.77l-17.86,57.15h-21.18Z"/><path class="cls-3" d="m921.27,1056.94v-57.15h40.12v12.63h-19.94v10.13h18.19v10.47h-18.19v10.88h19.94v13.04h-40.12Z"/><path class="cls-3" d="m1012.15,1058.27c-3.99,0-7.28-.6-9.89-1.79-2.6-1.19-4.68-2.84-6.23-4.94-1.55-2.1-2.71-4.57-3.49-7.39-.78-2.83-1.3-5.87-1.58-9.14h-3.9v21.93h-18.19v-57.15h23.51c9.08,0,15.63,1.59,19.65,4.78,4.01,3.18,6.02,7.49,6.02,12.92,0,3.27-.89,6.19-2.66,8.76-1.77,2.57-4.62,4.72-8.56,6.44.22,1.22.42,2.22.58,2.99.17.78.42,1.63.75,2.57.72,1.99,1.62,3.38,2.7,4.15,1.08.78,2.56,1.16,4.44,1.16,1.22,0,2.44-.17,3.66-.5l1,13.62c-1.11.44-2.28.82-3.53,1.12-1.25.3-2.67.46-4.28.46Zm-25.09-34.64h3.16c4.1,0,6.99-.46,8.68-1.37,1.69-.91,2.53-2.48,2.53-4.69,0-1.88-.69-3.25-2.08-4.11-1.39-.86-3.57-1.29-6.56-1.29h-5.73v11.46Z"/><path class="cls-3" d="m1034.66,1056.94v-15.87l-16.45-41.29h17.86l8.06,25.25,7.89-25.25h17.78l-17.28,41.29v15.87h-17.86Z"/><path class="cls-2" d="m644.92,574.86c3.55,0,7.19.22,10.91.67,3.73.44,7.54,1.11,11.45,2l3.73-33.81c-9.23-3.9-20.94-5.86-35.14-5.86-11.18,0-21.03,1.91-29.55,5.72-8.52,3.82-15.17,9.23-19.97,16.24-4.79,7.01-7.19,15.4-7.19,25.16v7.63h-39.84c-9.15,0-16.56,7.42-16.56,16.56s7.42,16.56,16.56,16.56c9.74,0,21.78,0,32.13,0,1.75,0,4.37.72,5.85,2.57,1.89,2.37,1.73,3.56,1.86,5.48.05.76,0,1.34,0,1.46-.16,2.47-1.04,4.45-2.27,5.57-2.74,2.49-5.21,2.14-6.58,2.14-3.36-.01-155.47,0-171.38,0-1.1,0-6.97.11-11.71,4.85-3,3-4.85,7.14-4.85,11.71,0,9.15,7.42,16.56,16.56,16.56,53.99,0,154.5.26,169.72,0,1.31-.02,5.33-.09,8.03,2.53,2.38,2.31,2.47,5.5,2.48,5.86,0,.21,0,3.82-2.73,6.34-1.56,1.44-3.18,2.16-5.13,2.28-1.84.12-4.53,0-8.5,0h-28.47c-1.01,0-34.97-.31-39.2,0-6.42.47-16.49,6.47-16.49,16.49,0,9.11,7.38,16.49,16.49,16.49h140.2v-100.36h31.15v-33.01h-37.54c-1.24-2.3-1.86-4.61-1.86-6.92,0-7.27,5.94-10.91,17.84-10.91Z"/><rect class="cls-5" x="386.9" y="642.95" width="77.03" height="33.19"/><rect class="cls-2" x="425.85" y="642.95" width="111.08" height="33.19" rx="16.59" ry="16.59"/><rect class="cls-2" x="470.3" y="592.6" width="33.13" height="33.13" rx="14.93" ry="14.93"/></svg>